<?xml version="1.0" ?><!DOCTYPE svg  PUBLIC '-//W3C//DTD SVG 1.1//EN'  'http://www.w3.org/Graphics/SVG/1.1/DTD/svg11.dtd'><svg height="78px" id="Layer_1" style="enable-background:new 0 0 78 78;" version="1.1" viewBox="0 0 78 78" width="78px" xml:space="preserve" xmlns="http://www.w3.org/2000/svg" xmlns:xlink="http://www.w3.org/1999/xlink"><path d="M52.5,33.529v-3c0-7.425-6.075-13.5-13.5-13.5s-13.5,6.075-13.5,13.5v3c0,7.425,6.075,13.5,13.5,13.5  S52.5,40.954,52.5,33.529z M39,0.03c-21.54,0-39,17.46-39,39c0,11.3,4.8,21.48,12.48,28.59c6.927,6.434,15.604,9.891,24.35,10.351  l-5.85-5.631l5.989-13.489l-6.399-5.11l-17.521,5.65C8.63,53.78,6,46.71,6,39.03c0-18.2,14.8-33,33-33s33,14.8,33,33  c0,7.67-2.63,14.74-7.04,20.35l-17.53-5.64l-6.41,5.11l5.99,13.489l-5.85,5.631c8.991-0.474,17.593-4.066,24.359-10.351  C73.2,60.511,78,50.33,78,39.03C78,17.49,60.54,0.03,39,0.03z" style="fill:#333F4F;"/></svg>